# xmcd
#
# Track frame offsets:
#	150
#	21107
#	35692
#	53140
#	67040
#	86372
#	108837
#	126542
#	143900
#	157197
#
# Disc length: 2286 seconds
#
# Revision: 1
# Processed by: cddbd v1.4PL0 Copyright (c) Steve Scherf et al.
# Submitted via: CDmax 1.8
#
DISCID=8c08ec0a
DTITLE=Band of Enchantment - Southwestern Tracks
DYEAR=1999
DGENRE=Country
TTITLE0=Train To Chama
TTITLE1=Honey Why
TTITLE2=Enchanted
TTITLE3=The Magic That Made Us Begin
TTITLE4=Full Moon In The Mountains
TTITLE5=Rustlers Moon
TTITLE6=When A Poor Man Dreams
TTITLE7=Old Wedding Ring
TTITLE8=A Great Divide
TTITLE9=Different State Of Mind
EXTD=Fabulous band from New Mexico. \n\nGo see them live if you can - www.band
EXTD=ofenchantment.com\n\nOne of the bummers about moving away from New Mexico
EXTD=is that I can't go see them easily.
EXTT0=
EXTT1=
EXTT2=
EXTT3=
EXTT4=
EXTT5=
EXTT6=
EXTT7=
EXTT8=
EXTT9=
PLAYORDER=
